{"title":"Sanam Re 2016 Movies DVDRip XViD ESubs New Source +Sample ☻rDX☻","uid":14188440,"size":739745400,"categoryP":"video","categoryS":"movies","magnet":"?xt=urn:btih:28214b4b902da772abd68b4544df1e00c40cb6a4&amp;dn=Sanam+Re+2016+Movies+DVDRip+XViD+ESubs+New+Source+%2BSample+%E2%98%BBrDX%E2%98%BB&amp;tr=udp%3A%2F%2Ftracker.leechers-paradise.org%3A6969&amp;tr=udp%3A%2F%2Fzer0day.ch%3A1337&amp;tr=udp%3A%2F%2Fopen.demonii.com%3A1337&amp;tr=udp%3A%2F%2Ftracker.coppersurfer.tk%3A6969&amp;tr=udp%3A%2F%2Fexodus.desync.com%3A6969","seeders":1,"leechers":0,"uploader":"basicssom","files":3,"time":1459864402,"description":"----------------------------------------------------------------\r\nSanam Re 2016 Hindi Movies DVDRip XViD ESubs AAC New Source with Sample ~ ☻rDX☻\r\n\r\nSCREEN SHOTS &amp; POSTER:\r\n  \nhttp://mobileshosting.com/2016/4/discount/index.htm  \nhttp://mobileshosting.com/2016/4/discount/1.html  \nhttp://mobileshosting.com/2016/4/discount/2.html  \nhttp://mobileshosting.com/2016/4/discount/3.html  \nhttp://mobileshosting.com/2016/4/discount/4.html  \nhttp://mobileshosting.com/2016/4/discount/5.html  \nhttp://mobileshosting.com/2016/4/discount/6.html  \nhttp://mobileshosting.com/2016/4/discount/7.html  \nhttp://mobileshosting.com/2016/4/discount/8.html  \nhttp://mobileshosting.com/2016/4/discount/9.html  \nhttp://mobileshosting.com/2016/4/discount/10.html\r\n\r\nFormat                                   : Matroska\r\nFormat version                           : Version 4 / Version 2\r\nFile size                                : 699 MiB\r\nDuration                                 : 1h 54mn\r\nOverall bit rate mode                    : Variable\r\nOverall bit rate                         : 857 Kbps\r\nMovie name                               : Sanam Re 2016 Hindi Movies DVDRip XViD ESubs AAC New Source ☻rDX☻\r\n\r\nVideo\r\nID                                       : 1\r\nFormat                                   : AVC\r\nFormat/Info                              : Advanced Video Codec\r\nFormat profile                           :   \r\nFormat settings, CABAC                   : Yes\r\nFormat settings, ReFrames                : 5 frames\r\nCodec ID                                 : V_MPEG4/ISO/AVC\r\nDuration                                 : 1h 54mn\r\nBit rate mode                            : Variable\r\nBit rate                                 : 775 Kbps\r\nMaximum bit rate                         : 62.5 Mbps\r\nWidth                                    : 640 pixels\r\nHeight                                   : 272 pixels\r\nDisplay aspect ratio                     : 2.35:1\r\nFrame rate mode                          : Constant\r\nFrame rate                               : 29.970 fps\r\nColor space                              : YUV\r\nChroma subsampling                       : 4:2:0\r\nBit depth                                : 8 bits\r\nScan type                                : Progressive\r\nBits/(Pixel*Frame)                       : 0.149\r\nStream size                              : 620 MiB (89%)\r\nTitle                                    : ☻rDX☻\r\nWriting library                          : XviD\r\n\r\nAudio\r\nID                                       : 2\r\nFormat                                   : MPEG Audio\r\nFormat version                           : Version 1\r\nFormat profile                           : Layer 3\r\nMode                                     : Joint stereo\r\nMode extension                           : MS Stereo\r\nCodec ID                                 : A_MPEG/L3\r\nCodec ID/Hint                            : MP3\r\nDuration                                 : 1h 54mn\r\nBit rate mode                            : Constant\r\nBit rate                                 : 80.0 Kbps\r\nChannel(s)                               : 2 channels\r\nSampling rate                            : 32.0 KHz\r\nCompression mode                         : Lossy\r\nStream size                              : 65.3 MiB (9%)\r\nTitle                                    : ☻rDX☻\r\nWriting library                          : LAME3.99r\r\nEncoding settings                        : -m j -V 4 -q 2 -lowpass 13.5 -b 80\r\nDefault                                  : Yes\r\nForced                                   : No\r\n\r\nIMDB \nhttp://www.imdb.com/title/tt4262516/","torrent":{"xt":"urn:btih:28214b4b902da772abd68b4544df1e00c40cb6a4","amp;dn":"Sanam+Re+2016+Movies+DVDRip+XViD+ESubs+New+Source+%2BSample+%E2%98%BBrDX%E2%98%BB","amp;tr":["udp%3A%2F%2Ftracker.leechers-paradise.org%3A6969","udp%3A%2F%2Fzer0day.ch%3A1337","udp%3A%2F%2Fopen.demonii.com%3A1337","udp%3A%2F%2Ftracker.coppersurfer.tk%3A6969","udp%3A%2F%2Fexodus.desync.com%3A6969"],"infoHash":"28214b4b902da772abd68b4544df1e00c40cb6a4","infoHashBuffer":{"type":"Buffer","data":[40,33,75,75,144,45,167,114,171,214,139,69,68,223,30,0,196,12,182,164]},"announce":[],"urlList":[]}}